<svg xmlns="http://www.w3.org/2000/svg" xmlns:xlink="http://www.w3.org/1999/xlink" width="62" zoomAndPan="magnify" viewBox="0 0 46.5 46.5" height="62" preserveAspectRatio="xMidYMid meet" version="1.0"><defs><clipPath id="6c333f305d"><path d="M 0.5625 0.929688 L 45.085938 0.929688 L 45.085938 44.710938 L 0.5625 44.710938 Z M 0.5625 0.929688 " clip-rule="nonzero"/></clipPath></defs><g clip-path="url(#6c333f305d)"><path fill="#92278f" d="M 22.617188 45.070312 L 23.273438 45.070312 C 23.324219 45.078125 23.375 45.078125 23.425781 45.070312 C 24.148438 45.070312 24.867188 45.03125 25.585938 44.960938 C 26.308594 44.890625 27.019531 44.78125 27.730469 44.640625 C 28.4375 44.5 29.136719 44.324219 29.828125 44.113281 C 30.519531 43.902344 31.199219 43.660156 31.867188 43.382812 C 32.535156 43.105469 33.1875 42.792969 33.824219 42.453125 C 34.460938 42.113281 35.082031 41.738281 35.683594 41.335938 C 36.28125 40.933594 36.863281 40.503906 37.421875 40.046875 C 37.976562 39.585938 38.511719 39.101562 39.023438 38.589844 C 39.535156 38.078125 40.019531 37.542969 40.476562 36.984375 C 40.933594 36.425781 41.363281 35.84375 41.765625 35.242188 C 42.164062 34.640625 42.535156 34.019531 42.875 33.382812 C 43.214844 32.746094 43.523438 32.09375 43.800781 31.425781 C 44.074219 30.757812 44.316406 30.078125 44.527344 29.386719 C 44.738281 28.691406 44.910156 27.992188 45.050781 27.285156 C 45.191406 26.574219 45.296875 25.859375 45.367188 25.140625 C 45.4375 24.421875 45.472656 23.699219 45.472656 22.976562 C 45.46875 22.253906 45.433594 21.535156 45.363281 20.816406 C 45.289062 20.09375 45.183594 19.382812 45.042969 18.671875 C 44.902344 17.964844 44.726562 17.261719 44.515625 16.570312 C 44.304688 15.878906 44.058594 15.203125 43.78125 14.535156 C 43.503906 13.867188 43.195312 13.214844 42.855469 12.578125 C 42.511719 11.941406 42.140625 11.320312 41.738281 10.71875 C 41.335938 10.121094 40.90625 9.539062 40.445312 8.980469 C 39.988281 8.421875 39.503906 7.890625 38.992188 7.378906 C 38.480469 6.867188 37.945312 6.382812 37.382812 5.925781 C 36.824219 5.46875 36.246094 5.039062 35.644531 4.636719 C 35.042969 4.238281 34.421875 3.867188 33.785156 3.527344 C 33.148438 3.1875 32.496094 2.878906 31.828125 2.601562 C 31.15625 2.328125 30.476562 2.082031 29.785156 1.875 C 29.09375 1.664062 28.394531 1.492188 27.683594 1.351562 C 26.976562 1.210938 26.261719 1.105469 25.542969 1.035156 C 24.824219 0.964844 24.101562 0.929688 23.378906 0.929688 L 22.617188 0.929688 C 21.894531 0.929688 21.175781 0.96875 20.457031 1.039062 C 19.734375 1.109375 19.023438 1.214844 18.3125 1.355469 C 17.605469 1.496094 16.90625 1.671875 16.214844 1.882812 C 15.523438 2.09375 14.84375 2.335938 14.175781 2.613281 C 13.507812 2.890625 12.855469 3.199219 12.21875 3.539062 C 11.582031 3.878906 10.960938 4.25 10.359375 4.652344 C 9.757812 5.054688 9.179688 5.484375 8.621094 5.941406 C 8.0625 6.402344 7.527344 6.886719 7.015625 7.398438 C 6.507812 7.910156 6.023438 8.445312 5.5625 9.003906 C 5.105469 9.5625 4.675781 10.140625 4.273438 10.742188 C 3.871094 11.34375 3.5 11.960938 3.160156 12.597656 C 2.820312 13.238281 2.511719 13.890625 2.234375 14.554688 C 1.957031 15.222656 1.714844 15.902344 1.507812 16.59375 C 1.296875 17.285156 1.121094 17.988281 0.980469 18.695312 C 0.839844 19.40625 0.734375 20.117188 0.664062 20.835938 C 0.589844 21.558594 0.554688 22.277344 0.554688 23 C 0.554688 23.722656 0.589844 24.445312 0.664062 25.164062 C 0.734375 25.882812 0.839844 26.597656 0.980469 27.304688 C 1.121094 28.015625 1.296875 28.714844 1.507812 29.40625 C 1.714844 30.097656 1.957031 30.777344 2.234375 31.445312 C 2.511719 32.113281 2.820312 32.765625 3.160156 33.402344 C 3.5 34.039062 3.871094 34.65625 4.273438 35.257812 C 4.675781 35.859375 5.105469 36.441406 5.5625 37 C 6.023438 37.558594 6.507812 38.09375 7.015625 38.601562 C 7.527344 39.113281 8.0625 39.597656 8.621094 40.058594 C 9.179688 40.515625 9.757812 40.945312 10.359375 41.347656 C 10.960938 41.75 11.582031 42.121094 12.21875 42.460938 C 12.855469 42.800781 13.507812 43.109375 14.175781 43.386719 C 14.84375 43.664062 15.523438 43.90625 16.214844 44.117188 C 16.90625 44.328125 17.605469 44.503906 18.3125 44.644531 C 19.023438 44.785156 19.734375 44.890625 20.457031 44.960938 C 21.175781 45.035156 21.894531 45.070312 22.617188 45.070312 Z M 9.679688 22.789062 C 9.699219 21.277344 9.871094 19.785156 10.191406 18.3125 C 12.289062 18.796875 14.410156 19.152344 16.550781 19.371094 C 16.46875 20.429688 16.414062 21.515625 16.402344 22.628906 C 16.402344 24.074219 16.453125 25.457031 16.566406 26.8125 C 14.429688 27.042969 12.316406 27.410156 10.230469 27.917969 C 9.851562 26.226562 9.671875 24.519531 9.679688 22.789062 Z M 36.171875 22.789062 C 36.191406 24.585938 35.996094 26.363281 35.585938 28.113281 C 33.507812 27.589844 31.40625 27.195312 29.277344 26.933594 C 29.398438 25.558594 29.46875 24.132812 29.453125 22.65625 C 29.453125 21.515625 29.390625 20.375 29.300781 19.316406 C 31.4375 19.066406 33.550781 18.6875 35.640625 18.175781 C 35.980469 19.695312 36.164062 21.230469 36.1875 22.789062 Z M 17.90625 22.644531 C 17.90625 21.570312 17.96875 20.519531 18.042969 19.507812 C 19.476562 19.613281 20.957031 19.683594 22.511719 19.683594 L 22.929688 19.683594 C 24.648438 19.683594 26.296875 19.601562 27.867188 19.4375 C 27.953125 20.472656 28.003906 21.539062 28.011719 22.644531 C 28.011719 24.058594 27.960938 25.421875 27.847656 26.746094 C 26.277344 26.601562 24.632812 26.507812 22.921875 26.492188 C 21.210938 26.476562 19.613281 26.546875 18.066406 26.675781 C 17.9375 25.375 17.875 24.027344 17.890625 22.644531 Z M 22.9375 10.976562 L 23.097656 10.976562 C 24.222656 10.976562 25.273438 10.921875 26.261719 10.855469 C 26.945312 13.1875 27.425781 15.5625 27.703125 17.976562 C 26.179688 18.113281 24.574219 18.199219 22.898438 18.207031 C 21.226562 18.214844 19.679688 18.160156 18.171875 18.046875 C 18.457031 15.597656 18.941406 13.191406 19.628906 10.824219 C 20.730469 10.921875 21.855469 10.976562 22.9375 10.976562 Z M 20.074219 9.386719 C 20.839844 7.050781 21.796875 4.792969 22.945312 2.621094 C 24.09375 4.804688 25.050781 7.066406 25.820312 9.410156 C 24.960938 9.46875 24.054688 9.5 23.089844 9.507812 L 22.9375 9.507812 C 21.984375 9.507812 21.027344 9.460938 20.074219 9.386719 Z M 22.890625 27.96875 C 24.566406 27.96875 26.164062 28.070312 27.679688 28.214844 C 27.386719 30.621094 26.898438 32.988281 26.21875 35.3125 C 25.234375 35.246094 24.199219 35.199219 23.097656 35.199219 C 21.992188 35.199219 20.8125 35.246094 19.679688 35.335938 C 18.980469 32.980469 18.488281 30.578125 18.195312 28.136719 C 19.695312 28.015625 21.261719 27.953125 22.890625 27.96875 Z M 23.089844 36.699219 C 24.035156 36.699219 24.917969 36.699219 25.761719 36.789062 C 25.003906 39.074219 24.0625 41.28125 22.945312 43.410156 C 21.828125 41.285156 20.886719 39.082031 20.128906 36.804688 C 21.097656 36.699219 22.109375 36.699219 23.089844 36.699219 Z M 20.890625 42.613281 C 18.617188 41.257812 16.636719 39.5625 14.945312 37.527344 C 16.15625 37.277344 17.390625 37.078125 18.621094 36.941406 C 19.253906 38.871094 20.011719 40.75 20.890625 42.582031 Z M 19.285156 43.371094 C 15.695312 42.757812 12.492188 41.292969 9.679688 38.980469 C 10.898438 38.539062 12.132812 38.164062 13.386719 37.847656 C 15.046875 40.003906 17.011719 41.832031 19.285156 43.328125 Z M 24.992188 42.613281 C 25.882812 40.761719 26.644531 38.863281 27.273438 36.910156 C 28.523438 37.03125 29.761719 37.210938 30.988281 37.460938 C 29.289062 39.519531 27.292969 41.226562 24.992188 42.582031 Z M 32.601562 37.824219 C 33.695312 38.105469 34.765625 38.445312 35.820312 38.84375 C 33.199219 41.039062 30.210938 42.488281 26.863281 43.191406 C 29.066406 41.703125 30.96875 39.90625 32.578125 37.792969 Z M 27.730469 35.472656 C 28.402344 33.152344 28.878906 30.792969 29.164062 28.394531 C 31.214844 28.648438 33.246094 29.027344 35.25 29.539062 C 34.53125 31.925781 33.449219 34.136719 32 36.164062 C 30.585938 35.839844 29.152344 35.601562 27.710938 35.441406 Z M 29.171875 17.824219 C 28.886719 15.421875 28.414062 13.054688 27.753906 10.726562 C 29.207031 10.578125 30.644531 10.339844 32.070312 10.015625 C 33.511719 12.074219 34.582031 14.3125 35.289062 16.722656 C 33.273438 17.214844 31.234375 17.582031 29.171875 17.824219 Z M 27.320312 9.300781 C 26.683594 7.292969 25.90625 5.335938 24.992188 3.433594 C 27.339844 4.84375 29.371094 6.621094 31.082031 8.761719 C 29.835938 9.007812 28.582031 9.1875 27.320312 9.300781 Z M 26.832031 2.855469 C 30.257812 3.566406 33.304688 5.054688 35.964844 7.324219 C 34.898438 7.726562 33.8125 8.074219 32.707031 8.367188 C 31.0625 6.195312 29.101562 4.351562 26.832031 2.839844 Z M 20.890625 3.441406 C 19.996094 5.328125 19.234375 7.269531 18.605469 9.265625 C 17.351562 9.128906 16.105469 8.921875 14.878906 8.664062 C 16.570312 6.5625 18.578125 4.816406 20.890625 3.425781 Z M 13.28125 8.296875 C 12.011719 7.976562 10.757812 7.589844 9.527344 7.140625 C 12.378906 4.773438 15.628906 3.28125 19.285156 2.671875 C 16.953125 4.199219 14.945312 6.066406 13.257812 8.28125 Z M 18.164062 10.695312 C 17.492188 13.066406 17.015625 15.480469 16.734375 17.933594 C 14.652344 17.722656 12.59375 17.382812 10.554688 16.914062 C 11.265625 14.410156 12.371094 12.097656 13.867188 9.972656 C 15.277344 10.285156 16.703125 10.519531 18.144531 10.679688 Z M 16.734375 28.273438 C 17.019531 30.71875 17.503906 33.125 18.1875 35.488281 C 16.761719 35.65625 15.351562 35.894531 13.949219 36.203125 C 12.453125 34.109375 11.335938 31.824219 10.609375 29.355469 C 12.628906 28.859375 14.667969 28.5 16.734375 28.273438 Z M 12.4375 36.585938 C 11.066406 36.945312 9.722656 37.378906 8.402344 37.886719 C 6.535156 36.105469 5.054688 34.046875 3.957031 31.714844 C 5.632812 30.871094 7.375 30.203125 9.1875 29.710938 C 9.902344 32.175781 10.984375 34.46875 12.4375 36.585938 Z M 37.015625 37.710938 C 35.867188 37.242188 34.695312 36.84375 33.5 36.515625 C 34.886719 34.472656 35.933594 32.265625 36.644531 29.902344 C 38.242188 30.367188 39.785156 30.972656 41.269531 31.722656 C 40.214844 33.976562 38.796875 35.972656 37.015625 37.710938 Z M 41.847656 30.367188 C 40.296875 29.589844 38.6875 28.964844 37.015625 28.488281 C 37.871094 24.917969 37.890625 21.34375 37.078125 17.765625 C 38.761719 17.304688 40.394531 16.703125 41.976562 15.960938 C 42.828125 18.292969 43.238281 20.695312 43.21875 23.175781 C 43.195312 25.65625 42.738281 28.050781 41.847656 30.367188 Z M 41.414062 14.628906 C 39.894531 15.351562 38.324219 15.9375 36.703125 16.386719 C 36.011719 13.988281 34.972656 11.75 33.589844 9.667969 C 34.800781 9.328125 35.984375 8.925781 37.144531 8.449219 C 38.949219 10.246094 40.371094 12.308594 41.414062 14.628906 Z M 8.273438 8.238281 C 9.597656 8.746094 10.945312 9.183594 12.3125 9.554688 C 10.875 11.703125 9.808594 14.023438 9.109375 16.515625 C 7.273438 16.042969 5.496094 15.402344 3.78125 14.589844 C 4.875 12.1875 6.375 10.070312 8.273438 8.238281 Z M 3.257812 15.96875 C 5.035156 16.800781 6.875 17.460938 8.773438 17.953125 C 8.425781 19.542969 8.242188 21.148438 8.226562 22.773438 C 8.210938 24.648438 8.40625 26.5 8.820312 28.328125 C 6.941406 28.835938 5.125 29.523438 3.378906 30.390625 C 2.492188 28.078125 2.039062 25.683594 2.019531 23.210938 C 1.996094 20.734375 2.410156 18.332031 3.257812 16.007812 Z M 3.257812 15.96875 " fill-opacity="1" fill-rule="nonzero"/></g></svg>